<?xml version="1.0" encoding="UTF-8"?>
<svg width="35.756mm" height="28.033mm" version="1.1" viewBox="0 0 35.756 28.033" xmlns="http://www.w3.org/2000/svg" xmlns:cc="http://creativecommons.org/ns#" xmlns:dc="http://purl.org/dc/elements/1.1/" xmlns:rdf="http://www.w3.org/1999/02/22-rdf-syntax-ns#">
<title>Heart</title>
<metadata>
<rdf:RDF>
<cc:Work rdf:about="">
<dc:format>image/svg+xml</dc:format>
<dc:type rdf:resource="http://purl.org/dc/dcmitype/StillImage"/>
<dc:title>Heart</dc:title>
<dc:date>07/05/2020</dc:date>
<dc:creator>
<cc:Agent>
<dc:title>Aodhamm@gmail.com</dc:title>
</cc:Agent>
</dc:creator>
<dc:rights>
<cc:Agent>
<dc:title/>
</cc:Agent>
</dc:rights>
<cc:license rdf:resource="http://creativecommons.org/licenses/by-sa/4.0/"/>
</cc:Work>
<cc:License rdf:about="http://creativecommons.org/licenses/by-sa/4.0/">
<cc:permits rdf:resource="http://creativecommons.org/ns#Reproduction"/>
<cc:permits rdf:resource="http://creativecommons.org/ns#Distribution"/>
<cc:requires rdf:resource="http://creativecommons.org/ns#Notice"/>
<cc:requires rdf:resource="http://creativecommons.org/ns#Attribution"/>
<cc:permits rdf:resource="http://creativecommons.org/ns#DerivativeWorks"/>
<cc:requires rdf:resource="http://creativecommons.org/ns#ShareAlike"/>
</cc:License>
</rdf:RDF>
</metadata>
<g transform="translate(31.245 41.277)">
<g transform="translate(-186.4 -11.297)">
<g transform="translate(154.91 -30.296)">
<g transform="translate(-186.4 -11.297)">
<g transform="translate(30.078 33.325)" stroke="#000" stroke-width=".26458px">
<path d="m173.83-17.19s-6.8181-9.3261-14.933-0.81195c-7.1955 7.5496 4.6613 23.69 15.286 24.182 5.9874 0.27724 17.723-7.1669 18.004-16.416 0.0851-10.616-11.971-14.491-18.357-6.9545z"/>
<path d="m173.16-16.343s-5.5378-8.3872-13.027-1.4827c-8.5356 9.0861 6.7353 23.1 13.944 23.229 7.8881 0.02666 17.042-9.1452 17.333-15.145 0.27663-5.6997-3.2513-9.4705-7.8724-10.344-4.3523-0.82232-10.959 2.4876-10.802 7.59-0.5163-0.74397-0.4173-2.6404 0.42363-3.8479z" fill="#f00"/>
</g>
</g>
</g>
</g>
</g>
</svg>
