<?xml version="1.0" encoding="UTF-8"?>
<svg version="1.1" viewBox="0 0 137.27 117.17" xmlns="http://www.w3.org/2000/svg" xmlns:cc="http://creativecommons.org/ns#" xmlns:dc="http://purl.org/dc/elements/1.1/" xmlns:rdf="http://www.w3.org/1999/02/22-rdf-syntax-ns#">
<title>Rock</title>
<g transform="matrix(.19511 1.2155 1.2155 -.19511 -1193.8 176.52)">
<path d="m89.471 1065.9c3.727 6.1-0.484 10-6.16 12.9-8.03 4.1-27.898 2.1-34.7-2-6.243-3.8-9.013-9.3-6.041-14.2" fill="#fff" stroke="#000" stroke-linecap="round" stroke-linejoin="round" stroke-width="4.0614"/>
<path d="m21.354 1021c-0.857 15.7 13.893 40.3 31.364 46.1 9.022 2.9 29.326 3.8 36.494-1.5 12.278-9 18.478-20.7 21.288-35.1 0.99-5.1 1.24-10.9 0.95-15.7-1.0243-19.615-7.2183-34.207-20.606-31.93-4.0887-16.074-28.906-12.222-29.025 0.06-12.665-14.242-31.088-0.95682-23.514 16.06-2.806 2.21-16.056 5.71-16.951 22.01z" fill="#fff" stroke="#000" stroke-linecap="round" stroke-linejoin="round" stroke-width="4.0614"/>
<path d="m63.9 983.51c3.9293 12.412 2.3553 17.577 2.4826 21.002-2.2696-7.8785-2.6348-9.9348-5.6681-18.124-0.5176-1.3926-1.1975-2.8019-2.7174-4.358l6.1176-0.90089c0.04218-0.30077-0.35752 1.4647-0.21472 2.3804z" stroke-width="5.781"/>
<path d="m92.465 981.32c1.5115 7.49 2.5208 16.87 0.95082 23.069-0.77062-4.1308-3.4725-14.678-4.5081-20.921-0.01285 2e-3 0.01246 0.0116 3.5573-2.1484z" stroke-width="5.781"/>
<path d="m79.642 1058.3c4.036-9.7 3.976-12.5 5.195-17.4" fill="none" stroke="#000" stroke-linecap="round" stroke-linejoin="round" stroke-width="4.0614"/>
<path d="m70.26 1059c1.693-11.5 1.425-17.2 1.856-24.9" fill="none" stroke="#000" stroke-linecap="round" stroke-linejoin="round" stroke-width="4.0614"/>
<path d="m59.041 1059.5c0.098-8-0.598-11.8-1.048-16.8" fill="none" stroke="#000" stroke-linecap="round" stroke-linejoin="round" stroke-width="4.0614"/>
<path d="m36.025 998.02c3.892 16.78-1.201 23.38-4.587 31.88 5.145-8.8 12.14-11.8 8.841-31.41z" stroke-width="5.781"/>
</g>
<metadata>
<rdf:RDF>
<cc:Work>
<dc:format>image/svg+xml</dc:format>
<dc:type rdf:resource="http://purl.org/dc/dcmitype/StillImage"/>
<cc:license rdf:resource="http://creativecommons.org/publicdomain/zero/1.0/"/>
<dc:publisher>
<cc:Agent rdf:about="http://openclipart.org/">
<dc:title>Openclipart</dc:title>
</cc:Agent>
</dc:publisher>
<dc:title>Rock</dc:title>
</cc:Work>
<cc:License rdf:about="http://creativecommons.org/publicdomain/zero/1.0/">
<cc:permits rdf:resource="http://creativecommons.org/ns#Reproduction"/>
<cc:permits rdf:resource="http://creativecommons.org/ns#Distribution"/>
<cc:permits rdf:resource="http://creativecommons.org/ns#DerivativeWorks"/>
</cc:License>
</rdf:RDF>
</metadata>
</svg>
